<svg width="16" height="22" viewBox="0 0 16 22" fill="none" xmlns="http://www.w3.org/2000/svg">
<mask id="path-1-inside-1_2_1877" fill="white">
<path d="M0 0H16V22H0V0Z"/>
</mask>
<g clip-path="url(#paint0_diamond_2_1877_clip_path)" data-figma-skip-parse="true" mask="url(#path-1-inside-1_2_1877)"><g transform="matrix(0.016 0 0 0.011 0 11)"><rect x="0" y="0" width="1062.5" height="1090.91" fill="url(#paint0_diamond_2_1877)" opacity="1" shape-rendering="crispEdges"/><rect x="0" y="0" width="1062.5" height="1090.91" transform="scale(1 -1)" fill="url(#paint0_diamond_2_1877)" opacity="1" shape-rendering="crispEdges"/><rect x="0" y="0" width="1062.5" height="1090.91" transform="scale(-1 1)" fill="url(#paint0_diamond_2_1877)" opacity="1" shape-rendering="crispEdges"/><rect x="0" y="0" width="1062.5" height="1090.91" transform="scale(-1)" fill="url(#paint0_diamond_2_1877)" opacity="1" shape-rendering="crispEdges"/></g></g><path d="M0 0V-11H-16V0H0ZM0 22H-16V33H0V22ZM0 0V11H16V0V-11H0V0ZM16 22V11H0V22V33H16V22ZM0 22H16V0H0H-16V22H0Z" data-figma-gradient-fill="{&#34;type&#34;:&#34;GRADIENT_DIAMOND&#34;,&#34;stops&#34;:[{&#34;color&#34;:{&#34;r&#34;:0.066666670143604279,&#34;g&#34;:0.066666670143604279,&#34;b&#34;:0.066666670143604279,&#34;a&#34;:1.0},&#34;position&#34;:0.99999988079071045},{&#34;color&#34;:{&#34;r&#34;:0.0,&#34;g&#34;:0.0,&#34;b&#34;:0.0,&#34;a&#34;:0.0},&#34;position&#34;:1.0}],&#34;stopsVar&#34;:[{&#34;color&#34;:{&#34;r&#34;:0.066666670143604279,&#34;g&#34;:0.066666670143604279,&#34;b&#34;:0.066666670143604279,&#34;a&#34;:1.0},&#34;position&#34;:0.99999988079071045},{&#34;color&#34;:{&#34;r&#34;:0.0,&#34;g&#34;:0.0,&#34;b&#34;:0.0,&#34;a&#34;:0.0},&#34;position&#34;:1.0}],&#34;transform&#34;:{&#34;m00&#34;:32.0,&#34;m01&#34;:0.0,&#34;m02&#34;:-16.0,&#34;m10&#34;:0.0,&#34;m11&#34;:22.0,&#34;m12&#34;:0.0},&#34;opacity&#34;:1.0,&#34;blendMode&#34;:&#34;NORMAL&#34;,&#34;visible&#34;:true}" mask="url(#path-1-inside-1_2_1877)"/>
<defs>
<clipPath id="paint0_diamond_2_1877_clip_path"><path d="M0 0V-11H-16V0H0ZM0 22H-16V33H0V22ZM0 0V11H16V0V-11H0V0ZM16 22V11H0V22V33H16V22ZM0 22H16V0H0H-16V22H0Z"/></clipPath><linearGradient id="paint0_diamond_2_1877" x1="0" y1="0" x2="500" y2="500" gradientUnits="userSpaceOnUse">
<stop offset="1" stop-color="#111111"/>
<stop offset="1" stop-opacity="0"/>
</linearGradient>
</defs>
</svg>
