<svg width="7" height="9" viewBox="0 0 7 9" fill="none" xmlns="http://www.w3.org/2000/svg">
<path d="M3.17865 8.13979L-0.000351555 5.43378V4.27878L2.04565 6.01679C2.20698 6.15612 2.33898 6.27712 2.44165 6.37979C2.54432 6.48245 2.61032 6.55579 2.63965 6.59979H2.74965C2.74232 6.50445 2.73132 6.37612 2.71665 6.21479C2.70198 6.04612 2.69465 5.88112 2.69465 5.71979V-0.000215054H3.68465V5.71979C3.68465 5.88112 3.67732 6.04612 3.66265 6.21479C3.65532 6.37612 3.64432 6.50445 3.62965 6.59979H3.73965C3.81298 6.48979 4.01465 6.29179 4.34465 6.00578L6.37965 4.26779V5.42278L3.17865 8.13979Z" fill="#111111"/>
</svg>
