<svg width="11" height="11" viewBox="0 0 11 11" fill="none" xmlns="http://www.w3.org/2000/svg">
<path d="M2.21189 10.7801C2.21189 10.6587 2.18856 10.5981 2.14189 10.5981L1.81989 10.7521C1.81989 10.6867 1.78256 10.6401 1.70789 10.6121L1.59589 10.5981C1.52122 10.5981 1.42789 10.6307 1.31589 10.6961C1.29722 10.6494 1.27389 10.6027 1.24589 10.5561C1.21789 10.5094 1.19456 10.4674 1.17589 10.4301C1.05456 10.1967 0.933222 9.94006 0.811889 9.66006C0.699889 9.37073 0.592555 9.0954 0.489889 8.83406C0.396555 8.57273 0.321889 8.3674 0.265889 8.21806C0.228555 8.09673 0.186555 7.91473 0.139889 7.67206C0.093222 7.4294 0.0465554 7.1214 -0.000111289 6.74806C0.102555 6.8134 0.181889 6.84606 0.237889 6.84606C0.303222 6.84606 0.363889 6.74806 0.419889 6.55206C0.447889 6.5894 0.499222 6.60806 0.573889 6.60806C0.629889 6.60806 0.671889 6.5894 0.699889 6.55206L0.923889 6.21606L1.17589 6.30006H1.18989C1.20856 6.30006 1.22722 6.29073 1.24589 6.27206C1.26456 6.2534 1.29256 6.23473 1.32989 6.21606C1.40456 6.1694 1.46056 6.14606 1.49789 6.14606L1.53989 6.16006C1.77322 6.27206 1.92256 6.4774 1.98789 6.77606C2.15589 7.4854 2.32389 7.84006 2.49189 7.84006C2.65989 7.84006 2.85589 7.66273 3.07989 7.30806C3.19189 7.13073 3.30389 6.9254 3.41589 6.69206C3.53722 6.45873 3.65856 6.1974 3.77989 5.90806C3.79856 6.02006 3.81722 6.07606 3.83589 6.07606C3.88256 6.07606 3.96189 5.9594 4.07389 5.72606C4.19522 5.49273 4.38656 5.17073 4.64789 4.76006C4.79722 4.50806 4.98389 4.2234 5.20789 3.90606C5.44122 3.58873 5.68856 3.26206 5.94989 2.92606C6.21122 2.59006 6.46322 2.27273 6.70589 1.97406C6.95789 1.6754 7.18189 1.41873 7.37789 1.20406C7.57389 0.989395 7.71856 0.849395 7.81189 0.784062C8.16656 0.541395 8.44656 0.308062 8.65189 0.0840621C8.64256 0.149395 8.62856 0.210062 8.60989 0.266062C8.60056 0.312729 8.59589 0.345395 8.59589 0.364062C8.59589 0.401395 8.61456 0.420062 8.65189 0.420062L9.04389 0.224062V0.280062C9.04389 0.354729 9.06256 0.392062 9.09989 0.392062C9.12789 0.392062 9.18389 0.350062 9.26789 0.266062C9.35189 0.182062 9.39856 0.121396 9.40789 0.0840621L9.37989 0.280062L9.85589 6.23465e-05L9.74389 0.252062C9.89322 0.149395 10.0006 0.0980619 10.0659 0.0980619C10.1032 0.0980619 10.1312 0.121395 10.1499 0.168062C10.1686 0.205395 10.1779 0.242729 10.1779 0.280062C10.1779 0.336062 10.1546 0.401395 10.1079 0.476062C10.0612 0.550729 10.0006 0.639396 9.92589 0.742062C9.86989 0.816729 9.77656 0.928729 9.64589 1.07806C9.52456 1.21806 9.33789 1.42806 9.08589 1.70806C8.83389 1.97873 8.49789 2.35673 8.07789 2.84206C7.96589 2.9634 7.79322 3.17806 7.55989 3.48606C7.32656 3.78473 7.06056 4.13473 6.76189 4.53606C6.47256 4.92806 6.18322 5.32473 5.89389 5.72606C5.60456 6.1274 5.34789 6.4914 5.12389 6.81806C4.89989 7.1354 4.74122 7.3734 4.64789 7.53206L3.77989 9.00206C3.59322 9.3194 3.43922 9.58073 3.31789 9.78606C3.19656 9.98206 3.10322 10.1174 3.03789 10.1921C2.89789 10.3601 2.74389 10.5094 2.57589 10.6401L2.44989 10.5701L2.33789 10.6401L2.21189 10.7801Z" fill="#00D6D6"/>
</svg>
